# xmcd CD database file
#
# Track frame offsets:
#	150
#	22060
#	31495
#	46817
#	64270
#	94405
#	115490
#	137355
#	159780
#	177402
#	195890
#	225067
#
# Disc length: 3163 seconds
#
# Revision: 0
# Processed by: cddbd v1.4PL0 Copyright (c) Steve Scherf et al.
# Submitted via: CDex 1.50Beta7
#
DISCID=900c590c
DTITLE=Joe Pass - Meditation
DYEAR=2002
DGENRE=Jazz
TTITLE0=Meditation
TTITLE1=Shadow Waltz
TTITLE2=Mood Indigo
TTITLE3=More Than You Know
TTITLE4=When Your Lover Has Gone
TTITLE5=Everything Happens To Me
TTITLE6=It's All Right With Me
TTITLE7=I'll Never Be The Same
TTITLE8=You Stepped Out Of A Dream
TTITLE9=All The Things You Are
TTITLE10=How Deep Is The Ocean
TTITLE11=They Can't Take That Away From Me
EXTD=YEAR: 2002
EXTT0=
EXTT1=
EXTT2=
EXTT3=
EXTT4=
EXTT5=
EXTT6=
EXTT7=
EXTT8=
EXTT9=
EXTT10=
EXTT11=
PLAYORDER=
